HIERARCHY
ROOT hip
{
	OFFSET 0.000000 0.000000 0.000000 
	CHANNELS 6 Xposition Yposition Zposition Xrotation Yrotation Zrotation
	JOINT abdomen
	{
		OFFSET 0.000000 3.402643 0.000000 
		CHANNELS 3 Xrotation Yrotation Zrotation
		JOINT chest
		{
			OFFSET 0.000000 8.438565 -0.680529 
			CHANNELS 3 Xrotation Yrotation Zrotation
			JOINT neck
			{
				OFFSET 0.000000 9.885400 -0.272212 
				CHANNELS 3 Xrotation Yrotation Zrotation
				JOINT head
				{
					OFFSET 0.000000 3.130431 0.000000 
					CHANNELS 3 Xrotation Yrotation Zrotation
					End Site
					{
						OFFSET 0.000000 3.039250 0.000000 
					}
				}
			}
			JOINT rCollar
			{
				OFFSET -3.238290 6.669187 -0.816635 
				CHANNELS 3 Xrotation Yrotation Zrotation
				JOINT rShldr
				{
					OFFSET -2.515050 0.000000 0.000000 
					CHANNELS 3 Xrotation Yrotation Zrotation
					JOINT rForeArm
					{
						OFFSET -11.517700 0.000000 0.000000 
						CHANNELS 3 Xrotation Yrotation Zrotation
						JOINT rHand
						{
							OFFSET -9.026700 0.000000 0.000000 
							CHANNELS 3 Xrotation Yrotation Zrotation
							End Site
							{
								OFFSET -4.028470 0.000000 0.000000 
							}
						}
					}
				}
			}
			JOINT lCollar
			{
				OFFSET 3.238290 6.669187 -0.816635 
				CHANNELS 3 Xrotation Yrotation Zrotation
				JOINT lShldr
				{
					OFFSET 2.515050 0.000000 0.000000 
					CHANNELS 3 Xrotation Yrotation Zrotation
					JOINT lForeArm
					{
						OFFSET 11.517700 0.000000 0.000000 
						CHANNELS 3 Xrotation Yrotation Zrotation
						JOINT lHand
						{
							OFFSET 9.026700 0.000000 0.000000 
							CHANNELS 3 Xrotation Yrotation Zrotation
							End Site
							{
								OFFSET 4.028470 0.000000 0.000000 
							}
						}
					}
				}
			}
		}
	}
	JOINT rThigh
	{
		OFFSET -4.983750 -1.633274 1.361059 
		CHANNELS 3 Xrotation Yrotation Zrotation
		JOINT rShin
		{
			OFFSET 2.041588 -20.007561 0.000000 
			CHANNELS 3 Xrotation Yrotation Zrotation
			JOINT rFoot
			{
				OFFSET 0.000000 -19.190928 -1.224953 
				CHANNELS 3 Xrotation Yrotation Zrotation
				End Site
				{
					OFFSET 0.000000 -2.449906 4.627600 
				}
			}
		}
	}
	JOINT lThigh
	{
		OFFSET 4.983750 -1.633274 1.361059 
		CHANNELS 3 Xrotation Yrotation Zrotation
		JOINT lShin
		{
			OFFSET -2.041588 -20.007561 0.000000 
			CHANNELS 3 Xrotation Yrotation Zrotation
			JOINT lFoot
			{
				OFFSET 0.000000 -19.190928 -1.224953 
				CHANNELS 3 Xrotation Yrotation Zrotation
				End Site
				{
					OFFSET 0.000000 -2.449906 4.627600 
				}
			}
		}
	}
}
MOTION
Frames: 17
Frame Time: 0.029333
16.399145 41.451889 28.526609 159.118393 -3.948648 159.293396 0.702661 -0.389128 0.052346 2.341097 -1.286773 0.182722 -0.000001 0.000000 0.000002 0.000001 0.000000 0.000001 0.563180 0.010358 7.571044 -78.978706 -43.295120 -15.049710 0.910041 27.792440 -0.244666 0.000003 0.000000 -0.000001 -0.574822 -0.066760 7.778346 3.692652 -66.757050 19.569111 0.290739 -9.594646 0.031024 0.000000 -0.000001 0.000000 -9.177832 34.840221 -11.567720 53.529400 0.389951 -0.256309 -1.437097 0.859778 0.257390 -54.611721 45.443581 30.831779 44.848701 -0.346848 0.190858 -43.040218 3.902407 6.043470 
16.424383 41.461983 28.566729 159.172195 -2.586271 159.511398 0.713035 -0.398298 0.030179 2.360210 -1.289212 0.106623 0.000000 0.000000 0.000000 0.000000 0.000000 0.000000 0.574874 0.011361 7.728720 -76.464127 -44.277489 -12.270560 1.015103 30.437780 -0.297616 0.000002 -0.000001 0.000001 -0.549297 -0.062109 7.429838 3.580743 -67.544258 18.782610 0.310331 -10.226700 0.034831 0.000000 -0.000003 -0.000001 -10.611380 33.999298 -11.123190 52.992031 0.387514 -0.252108 -0.954578 1.468617 0.450185 -53.240170 42.808868 29.223970 45.246311 -0.349086 0.193681 -42.893070 4.415774 6.993325 
16.434263 41.464935 28.597399 159.129898 -1.401649 159.750397 0.707859 -0.376937 0.000452 2.354222 -1.236638 0.020286 0.000000 0.000000 0.000003 -0.000001 0.000000 0.000001 0.584323 0.012196 7.856121 -74.000938 -44.201580 -9.435476 1.063728 31.615320 -0.323489 0.000003 0.000000 0.000001 -0.516992 -0.056448 6.989362 2.992129 -67.982727 17.395550 0.290242 -9.578629 0.030929 -0.000001 0.000004 0.000000 -11.669600 33.118889 -10.420560 52.273869 0.384177 -0.246526 -0.148041 1.336951 0.410354 -52.566471 41.017071 28.375450 45.616550 -0.351154 0.196319 -42.663849 4.377388 6.659318 
16.431269 41.472420 28.619469 159.048798 -0.512686 160.009506 0.698418 -0.340210 -0.033344 2.337634 -1.153570 -0.074345 0.000001 0.000000 -0.000001 0.000001 0.000000 -0.000001 0.592453 0.012933 7.965691 -72.054970 -43.534901 -7.233379 1.071613 31.803471 -0.327762 0.000001 -0.000001 0.000000 -0.482603 -0.050699 6.521140 1.957332 -68.010033 15.414780 0.218666 -7.249038 0.018858 -0.000001 0.000000 -0.000001 -12.045080 32.602692 -9.407988 51.379520 0.379926 -0.239638 0.594170 0.256820 0.063883 -52.390911 40.210541 27.966949 45.845749 -0.352417 0.197956 -42.201710 4.525316 6.415718 
16.443159 41.489017 28.629309 159.112503 0.406679 160.182495 0.696145 -0.318289 -0.055559 2.324651 -1.074530 -0.166047 0.000000 0.000000 0.000000 0.000000 0.000000 0.000000 0.600412 0.013663 8.073108 -70.991081 -42.527908 -5.315638 1.066659 31.685141 -0.325073 0.000000 0.000001 0.000000 -0.448995 -0.045359 6.064089 0.507587 -66.642319 13.072740 0.146748 -4.881620 0.009634 -0.000001 0.000002 0.000000 -12.112930 32.498421 -7.983730 50.419590 0.375249 -0.232329 1.168115 -1.546371 -0.524897 -52.517448 39.889359 28.138700 45.980999 -0.353165 0.198927 -41.932259 4.604251 6.351566 
16.451971 41.503685 28.642355 159.156204 1.375223 160.326797 0.694104 -0.303217 -0.074350 2.314601 -1.029451 -0.237712 0.000000 0.000000 0.000000 0.000000 0.000000 0.000000 0.609071 0.014485 8.189930 -70.152924 -41.272758 -3.369296 1.049706 31.278749 -0.315942 -0.000001 0.000000 0.000001 -0.415437 -0.040305 5.608232 -1.044512 -63.390591 10.683770 0.110599 -3.683878 0.006114 -0.000001 -0.000004 -0.000002 -12.234940 32.621342 -6.552205 49.458988 0.370446 -0.225081 1.703240 -2.476742 -0.836590 -52.895538 39.891300 28.697479 46.034241 -0.353454 0.199315 -42.142719 4.161555 5.933699 
16.445127 41.526489 28.667933 158.884598 2.026060 160.523697 0.688743 -0.304127 -0.093251 2.287905 -1.030709 -0.272264 -0.000001 0.000000 0.000001 -0.000001 0.000000 0.000001 0.618898 0.015434 8.322537 -67.660103 -40.255581 -0.761882 1.061874 31.570910 -0.322483 0.000001 0.000000 0.000000 -0.378200 -0.035011 5.103058 -2.430537 -58.728931 8.274678 0.100704 -3.355367 0.005284 0.000000 0.000004 0.000001 -12.496240 32.775970 -5.540763 48.614220 0.366119 -0.218772 1.423122 -1.168769 -0.416090 -53.411869 40.245079 29.059290 45.760509 -0.351948 0.197349 -42.461361 3.585255 5.358708 
16.446966 41.568577 28.673321 158.413406 2.172099 160.662903 0.665930 -0.320290 -0.084869 2.215407 -1.069216 -0.259704 0.000000 0.000000 -0.000001 0.000000 0.000000 -0.000001 0.630530 0.016586 8.479516 -63.605961 -39.585361 2.277233 1.127788 33.121559 -0.358820 -0.000005 -0.000002 -0.000001 -0.333030 -0.029040 4.491095 -3.559760 -53.631981 5.869622 0.094665 -3.154737 0.004803 0.000000 0.000000 0.000001 -12.789400 32.810490 -4.766411 47.974209 0.362784 -0.214036 -0.046625 0.987485 0.288781 -53.686081 40.552021 28.944410 45.220669 -0.348938 0.193500 -42.414650 3.390874 5.134961 
16.466429 41.608654 28.664467 158.069702 2.198705 160.654602 0.622810 -0.337694 -0.065690 2.074147 -1.121145 -0.201952 0.000000 0.000000 0.000000 0.000000 0.000000 0.000000 0.645450 0.018109 8.680976 -60.120201 -38.417419 4.965998 1.194892 34.644871 -0.397279 -0.000001 0.000000 0.000000 -0.277663 -0.022389 3.742165 -4.257503 -48.622459 3.566355 0.083327 -2.777795 0.003958 0.000000 0.000000 0.000000 -13.309010 32.756168 -3.806154 47.756359 0.361639 -0.212442 -1.187639 2.116368 0.683445 -53.842281 40.446308 28.811050 44.930859 -0.347311 0.191444 -41.890862 3.444432 5.089688 
16.503386 41.636116 28.697319 157.869705 2.442336 160.559692 0.558390 -0.348815 -0.038083 1.859389 -1.160505 -0.112436 0.000001 0.000001 0.000002 0.000000 0.000000 0.000000 0.666256 0.020329 8.962008 -58.019272 -36.106331 7.145618 1.212767 35.041401 -0.407761 0.000000 0.000001 -0.000001 -0.212826 -0.015528 2.866495 -4.574127 -43.608299 1.099686 0.069524 -2.318475 0.003031 0.000000 0.000000 0.000000 -14.534480 32.636909 -2.416464 48.367592 0.364844 -0.216937 -1.120270 1.961114 0.666973 -54.186539 39.696091 28.877041 45.258148 -0.349151 0.193769 -41.071491 3.422284 4.807503 
16.555441 41.670551 28.775938 157.552094 2.696484 160.451004 0.477059 -0.351223 -0.006713 1.587528 -1.170452 -0.010589 -0.000001 0.000000 0.000000 0.000000 0.000000 0.000000 0.696231 0.023704 9.367182 -56.408241 -33.042992 8.556689 1.168422 34.050720 -0.381938 0.000001 0.000000 0.000000 -0.141341 -0.009129 1.902462 -4.583030 -38.493301 -1.676794 0.044275 -1.477363 0.001615 0.000000 0.000000 0.000000 -16.818460 32.418388 -0.540975 49.927189 0.372806 -0.228583 -0.827915 1.275521 0.440594 -54.387939 38.087471 28.534250 45.782600 -0.352076 0.197512 -40.296230 3.225289 4.239337 
16.596846 41.716785 28.862682 157.022293 2.852623 160.375793 0.388820 -0.344629 0.022883 1.290602 -1.148343 0.084926 0.000000 0.000000 0.000000 0.000000 0.000000 0.000000 0.738320 0.028810 9.936563 -54.522949 -29.712700 9.085907 1.064245 31.627569 -0.323764 0.000002 0.000001 0.000000 -0.066287 -0.003704 0.891780 -4.296130 -33.015900 -4.667161 0.007847 -0.262354 0.000231 -0.000001 0.000001 0.000000 -20.343540 32.194221 1.691794 52.292461 0.384274 -0.246646 -0.843444 0.917843 0.308455 -54.251701 35.793091 27.581329 46.010941 -0.353339 0.199146 -39.676991 3.133142 3.856224 
16.617975 41.770809 28.926542 156.477203 3.032708 160.354401 0.305225 -0.331247 0.046390 1.007191 -1.103094 0.160250 0.000000 0.000000 0.000001 0.000000 0.000000 0.000001 0.793503 0.036151 10.684220 -53.204491 -26.657021 8.932090 0.953524 28.904060 -0.266074 0.000005 -0.000001 0.000000 0.010476 0.000469 -0.140734 -3.647400 -26.855980 -7.926978 -0.009095 0.303099 -0.000149 0.000001 -0.000001 -0.000001 -24.568640 32.010250 4.057842 54.515560 0.394365 -0.264049 -0.690233 0.925500 0.303508 -54.048092 33.342171 26.574209 46.048889 -0.353546 0.199421 -38.975651 3.274327 3.844880 
16.633802 41.843952 28.958580 156.017700 3.176174 160.399506 0.235693 -0.314786 0.060800 0.774240 -1.047556 0.205961 0.000000 0.000000 -0.000002 0.000000 0.000000 0.000000 0.859201 0.045845 11.576190 -53.231758 -24.576651 8.344364 0.896672 27.445721 -0.238227 0.000000 0.000000 0.000000 0.088757 0.003296 -1.192797 -2.466736 -20.061029 -11.389690 0.011023 -0.368350 0.000320 -0.000002 -0.000001 0.000000 -28.485821 31.774191 6.177373 55.126572 0.397021 -0.268895 -0.670156 0.955538 0.308329 -54.156830 31.220400 26.066351 46.378269 -0.355340 0.201795 -37.593800 2.603276 2.794657 
16.647532 41.926292 28.981335 155.581406 3.282448 160.544006 0.186742 -0.298845 0.065186 0.622810 -0.990754 0.213555 -0.000001 0.000000 -0.000001 0.000000 0.000000 0.000001 0.928830 0.057264 12.523850 -52.576931 -22.902691 7.956490 0.889752 27.265440 -0.234923 0.000000 0.000000 0.000000 0.169405 0.004703 -2.276247 -0.867298 -12.971510 -14.666470 0.049902 -1.664936 0.001895 -0.000001 0.000000 -0.000002 -31.865049 30.978630 7.698315 53.695511 0.390722 -0.257577 -1.358545 1.216712 0.397983 -54.817108 29.275240 26.197229 47.264450 -0.360124 0.208224 -34.991280 0.226533 -0.311271 
16.672087 41.998322 29.014572 155.141998 3.323823 160.686600 0.164847 -0.285985 0.059883 0.578452 -0.934219 0.171790 0.000000 0.000000 0.000000 0.000000 0.000000 0.000000 0.993539 0.068942 13.406870 -49.372009 -20.845949 8.452911 0.898229 27.486219 -0.238973 -0.000003 -0.000001 0.000000 0.253096 0.004552 -3.400342 0.775501 -6.523393 -17.356440 0.087232 -2.907606 0.004238 0.000000 0.000001 0.000002 -35.074810 29.288990 8.641404 51.066669 0.378426 -0.237213 -2.261046 1.890902 0.652887 -55.759140 27.089609 26.475510 48.458290 -0.366423 0.217001 -31.695770 -2.500284 -3.350266 
16.722687 42.068901 29.072445 154.527893 2.843922 160.697693 0.201382 -0.256322 0.009242 0.664594 -0.871880 0.066042 -0.000002 0.000000 0.000002 0.000000 0.000000 0.000002 1.045644 0.079097 14.119800 -45.142929 -19.207029 9.480600 0.934144 28.411551 -0.256442 0.000000 0.000001 0.000000 0.338873 0.002691 -4.552652 1.945299 -2.118797 -19.187540 0.120300 -4.005803 0.006989 0.000001 0.000001 -0.000001 -38.184349 27.269119 9.385318 48.231861 0.364140 -0.215917 -3.130470 2.291253 0.844651 -56.443062 24.592859 25.963869 49.345852 -0.370988 0.223609 -28.744619 -3.377476 -3.998827 
